<svg width="16" height="10" viewBox="0 0 16 10" fill="none" xmlns="http://www.w3.org/2000/svg">
<path d="M15.6834 1.98156L8.59103 9.74653C8.5066 9.8387 8.41513 9.90413 8.31662 9.94284C8.21812 9.98155 8.11258 10.0006 8 9.99999C7.88742 9.99999 7.78188 9.98094 7.68338 9.94284C7.58487 9.90475 7.4934 9.83931 7.40897 9.74653L0.295514 1.98156C0.0985048 1.76651 0 1.49769 0 1.17511C0 0.852533 0.105541 0.576036 0.316623 0.345622C0.527704 0.115207 0.773967 0 1.05541 0C1.33685 0 1.58311 0.115207 1.7942 0.345622L8 7.11981L14.2058 0.345622C14.4028 0.130569 14.6457 0.0230408 14.9345 0.0230408C15.2232 0.0230408 15.4729 0.138248 15.6834 0.368663C15.8945 0.599077 16 0.867894 16 1.17511C16 1.48233 15.8945 1.75115 15.6834 1.98156Z" fill="white"/>
</svg>
